<?xml version="1.0" encoding="utf-8"?>
<!-- Generator: Adobe Illustrator 25.4.1, SVG Export Plug-In . SVG Version: 6.00 Build 0)  -->
<svg version="1.0" id="Capa_1" xmlns="http://www.w3.org/2000/svg" xmlns:xlink="http://www.w3.org/1999/xlink" x="0px" y="0px"
	 viewBox="0 0 120 144" style="enable-background:new 0 0 120 144;" xml:space="preserve">
<style type="text/css">
	.st0{fill-rule:evenodd;clip-rule:evenodd;fill:#FFFFFF;}
</style>
<g>
	<g>
		<g>
			<path class="st0" d="M85.28,30.17c-5.68-2.85-13.09-5.72-21.4-5.6c-0.07-2-0.13-4-0.2-6c2.25,0.03,4.32-0.08,5.8-0.6
				c1.79-3.01,1.55-12.6,0.6-16.6c-3.16-2.54-18.22-2.39-21.4,0c-0.83,4.16-1.16,15.16,1.4,17c1.67,0.07,3.33,0.13,5,0.2
				c0,2,0,4,0,6c-11.01,0.12-20.49,4.53-27.6,9c-1.93,1.4-3.87,2.8-5.8,4.2c-0.7,0.47-0.62,0.23-1.2-0.4
				c-1.04-1.14,0.91-1.96,1.6-3.2c0.72-1.91-5.87-8.31-7.4-9c-0.53-0.07-1.07-0.13-1.6-0.2c-3.07,3.13-6.13,6.27-9.2,9.4
				c-0.07,0.47-0.13,0.93-0.2,1.4c2.6,2.53,5.2,5.07,7.8,7.6c0.47,0.07,0.93,0.13,1.4,0.2c0.87-0.8,1.73-1.6,2.6-2.4
				c0.47,0.47,0.93,0.93,1.4,1.4C3.13,52.81-5.05,83.29,3.48,104.97c9.68,24.6,41.01,49.56,77,35.4
				c18.62-7.33,31.28-21.14,37.2-41.2C127.32,66.48,105.03,40.1,85.28,30.17z M106.48,104.37c-7.46,17.37-21.51,27.01-43,30.6
				c-8.46,1.41-16.96-1.4-22.4-3.6c-20.53-8.32-41.12-34.7-29.2-65c5.84-14.85,16.87-25.44,32.2-30.8c3.67-0.73,7.33-1.47,11-2.2
				c1.33-0.07,2.67-0.13,4-0.2C93.6,34.52,122.47,67.14,106.48,104.37z M59.08,41.37c0.4,0,0.8,0,1.2,0c0-1.8,0-3.6,0-5.4
				c-0.4,0-0.8,0-1.2,0C59.08,37.77,59.08,39.57,59.08,41.37z M38.08,47.37c0.13-0.07,0.27-0.13,0.4-0.2c0.33-0.97-1.4-4.24-2.6-5
				c-0.2,0.2-0.4,0.4-0.6,0.6c0.73,1.4,1.47,2.8,2.2,4.2C37.68,47.1,37.88,47.23,38.08,47.37z M83.08,42.17
				c-0.8,1.6-1.6,3.2-2.4,4.8c0.27,0.13,0.53,0.27,0.8,0.4c0.87-1.53,1.73-3.07,2.6-4.6c-0.07-0.13-0.13-0.27-0.2-0.4
				C83.61,42.3,83.35,42.23,83.08,42.17z M17.88,60.37c1.53,0.93,3.07,1.87,4.6,2.8c0.13-0.27,0.27-0.53,0.4-0.8
				c-1.53-0.93-3.07-1.87-4.6-2.8C18.15,59.83,18.01,60.1,17.88,60.37z M96.68,62.97c1.5-0.12,2.98-1.55,4.6-2.2
				c0.07-0.13,0.13-0.27,0.2-0.4c-0.2-0.27-0.4-0.53-0.6-0.8c-1.47,0.93-2.93,1.87-4.4,2.8C96.55,62.57,96.61,62.77,96.68,62.97z
				 M11.68,84.57c1.8,0,3.6,0,5.4,0c0-0.33,0-0.67,0-1c-1.8,0-3.6,0-5.4,0C11.68,83.9,11.68,84.23,11.68,84.57z M107.68,83.57
				c-1.8,0-3.6,0-5.4,0c0,0.33,0,0.67,0,1c1.8,0,3.6,0,5.4,0C107.68,84.23,107.68,83.9,107.68,83.57z M17.88,107.77
				c0.07,0.2,0.13,0.4,0.2,0.6c1.51-0.12,2.99-1.55,4.6-2.2c0.07-0.13,0.13-0.27,0.2-0.4c-0.2-0.27-0.4-0.53-0.6-0.8
				C20.81,105.9,19.35,106.83,17.88,107.77z M96.48,105.77c1.53,0.93,3.07,1.87,4.6,2.8c0.13-0.27,0.27-0.53,0.4-0.8
				c-1.53-0.93-3.07-1.87-4.6-2.8C96.75,105.23,96.61,105.5,96.48,105.77z M35.28,125.57c0.27,0.13,0.53,0.27,0.8,0.4
				c0.87-1.53,1.73-3.07,2.6-4.6c-0.27-0.2-0.53-0.4-0.8-0.6C37.01,122.37,36.15,123.97,35.28,125.57z M81.28,120.77
				c-0.2,0.13-0.4,0.27-0.6,0.4c0.8,1.6,1.6,3.2,2.4,4.8c0.07,0,0.13,0,0.2,0c0.27-0.13,0.53-0.27,0.8-0.4
				C83.65,123.94,82.43,121.77,81.28,120.77z M59.08,132.17c0.4,0,0.8,0,1.2,0c0-1.8,0-3.6,0-5.4c-0.4,0-0.8,0-1.2,0
				C59.08,128.57,59.08,130.37,59.08,132.17z"/>
		</g>
	</g>
</g>
</svg>
